<?xml version="1.0" encoding="UTF-8" standalone="no"?><!DOCTYPE svg PUBLIC "-//W3C//DTD SVG 1.1//EN" "http://www.w3.org/Graphics/SVG/1.1/DTD/svg11.dtd"><svg width="100%" height="100%" viewBox="0 0 486 408" version="1.1" xmlns="http://www.w3.org/2000/svg" xmlns:xlink="http://www.w3.org/1999/xlink" xml:space="preserve" xmlns:serif="http://www.serif.com/" style="fill-rule:evenodd;clip-rule:evenodd;stroke-miterlimit:10;"><g><path d="M20.1,152.907l442.162,-102.775l-91.233,337.297l-350.929,-234.522Z" style="fill:none;fill-rule:nonzero;stroke:#000;stroke-width:4px;"/><path d="M329.378,20.1l-272.818,270.461l388.212,47.907l-115.394,-318.368Z" style="fill:none;fill-rule:nonzero;stroke:#000;stroke-width:4px;"/><clipPath id="_clip1"><path d="M220.302,62.411l16.159,-6.812l6.243,28.869l-22.402,-22.057Z"/></clipPath><g clip-path="url(#_clip1)"><rect x="215.302" y="50.599" width="32.402" height="38.868" style="fill:#fff;"/></g><clipPath id="_clip2"><path d="M376.677,27.105l5.714,11.57l-21.909,12.191l16.195,-23.761Z"/></clipPath><g clip-path="url(#_clip2)"><rect x="355.482" y="22.105" width="31.909" height="33.761" style="fill:#fff;"/></g><clipPath id="_clip3"><path d="M404.31,346.954l19.214,22.586l13.868,-11.293l-33.082,-11.293Z"/></clipPath><g clip-path="url(#_clip3)"><rect x="399.31" y="341.954" width="43.083" height="32.586" style="fill:#fff;"/></g><clipPath id="_clip4"><path d="M145.636,341.971l36.659,-24.307l-47.799,10.618l11.14,13.689Z"/></clipPath><g clip-path="url(#_clip4)"><rect x="129.496" y="312.664" width="57.799" height="34.307" style="fill:#fff;"/></g><clipPath id="_clip5"><path d="M145.636,341.971l36.659,-24.307l-47.799,10.618l11.14,13.689Z"/></clipPath><g clip-path="url(#_clip5)"><rect x="129.496" y="312.664" width="57.799" height="34.307" style="fill:#fff;"/></g><clipPath id="_clip6"><path d="M104.013,51.971l13.491,22.847l5.328,-9.228l16.502,9.528l-15.145,-25.153l-5.913,10.242l-14.263,-8.236Z"/></clipPath><g clip-path="url(#_clip6)"><path d="M153.269,60.981l-17.433,30.194l-45.173,-26.081l17.432,-30.194l45.174,26.081Z" style="fill:#fff;"/></g><clipPath id="_clip7"><path d="M469.354,181.552l-28.929,24.781l14.366,5.228l-9.358,25.711l31.776,-27.694l-15.944,-5.803l8.089,-22.223Z"/></clipPath><g clip-path="url(#_clip7)"><path d="M467.579,250.653l-42.921,-15.622l24.127,-66.286l42.921,15.622l-24.127,66.286Z" style="fill:#fff;"/></g><clipPath id="_clip8"><path d="M213.659,350.268l-8.476,23.755l10.037,-1.77l3.139,17.803l9.153,-26.364l-11.139,1.964l-2.714,-15.388Z"/></clipPath><g clip-path="url(#_clip8)"><path d="M237.537,391.752l-33.271,5.866l-8.682,-49.24l33.27,-5.867l8.683,49.241Z" style="fill:#fff;"/></g><g><clipPath id="_clip9"><path d="M6.046,177.218l420.785,-97.897l-86.823,321.288l-333.962,-223.391Z"/></clipPath><g clip-path="url(#_clip9)"><g><rect x="6.046" y="79.1" width="421" height="322" style="fill:#fff;"/><clipPath id="_clip10"><path d="M213.463,228.1c8.973,0 15.981,-3.035 21.022,-9.104c5.04,-6.069 7.561,-15.062 7.561,-26.979c0,-11.807 -2.521,-20.745 -7.561,-26.814c-5.041,-6.069 -12.049,-9.103 -21.022,-9.103c-8.974,0 -15.954,3.034 -20.939,9.103c-4.986,6.069 -7.478,15.007 -7.478,26.814c0,11.917 2.492,20.91 7.478,26.979c4.985,6.069 11.965,9.104 20.939,9.104Zm12.268,48.413l69.645,-119l-13.354,0l-69.646,119l13.355,0Zm-11.92,-57.489c-5.557,0 -9.696,-2.132 -12.418,-6.397c-2.721,-4.264 -4.082,-10.993 -4.082,-20.186c0,-9.083 1.361,-15.756 4.082,-20.021c2.722,-4.264 6.861,-6.396 12.418,-6.396c5.67,0 9.837,2.132 12.502,6.396c2.665,4.265 3.998,10.938 3.998,20.021c0,9.193 -1.333,15.922 -3.998,20.186c-2.665,4.265 -6.832,6.397 -12.502,6.397Zm81.161,58.373c8.974,0 15.981,-3.034 21.022,-9.103c5.041,-6.069 7.561,-15.062 7.561,-26.979c0,-11.918 -2.52,-20.883 -7.561,-26.897c-5.041,-6.014 -12.048,-9.021 -21.022,-9.021c-8.974,0 -15.953,3.007 -20.939,9.021c-4.985,6.014 -7.478,14.979 -7.478,26.897c0,11.917 2.493,20.91 7.478,26.979c4.986,6.069 11.965,9.103 20.939,9.103Zm-0.797,-10.772c-5.641,0 -9.787,-2.132 -12.438,-6.396c-2.651,-4.265 -3.977,-10.994 -3.977,-20.187c0,-9.082 1.326,-15.756 3.977,-20.02c2.651,-4.265 6.797,-6.397 12.438,-6.397c5.641,0 9.816,2.132 12.524,6.397c2.707,4.264 4.061,10.938 4.061,20.02c0,9.304 -1.326,16.061 -3.977,20.27c-2.651,4.209 -6.854,6.313 -12.608,6.313Z" clip-rule="nonzero"/></clipPath><g clip-path="url(#_clip10)"><rect x="180.046" y="151.1" width="148.509" height="131.298"/></g></g></g></g><clipPath id="_clip11"><path d="M140.223,299.344l37.757,-50.989l-59.61,37.966l21.853,13.023Z"/></clipPath><g clip-path="url(#_clip11)"><path d="M196.359,284.233l-74.236,27.02l-15.391,-42.287l74.236,-27.019l15.391,42.286Z"/></g><clipPath id="_clip12"><path d="M392.611,74.874l-31.403,26.481l15.705,5.716l-10.047,27.604l34.49,-29.597l-17.429,-6.344l8.684,-23.86Z"/></clipPath><g clip-path="url(#_clip12)"><path d="M390.797,148.707l-46.045,-16.759l25.652,-70.477l46.045,16.759l-25.652,70.477Z"/></g><clipPath id="_clip13"><path d="M80.035,124.257l-6.424,41.798l16.002,-6.142l10.851,28.268l6.71,-46.307l-17.76,6.817l-9.379,-24.434Z"/></clipPath><g clip-path="url(#_clip13)"><path d="M128.265,182.865l-46.679,17.919l-27.594,-71.886l46.679,-17.918l27.594,71.885Z"/></g><clipPath id="_clip14"><path d="M412.521,211.667l-5.893,23.659l-46.249,-8.667l52.142,-14.992Z"/></clipPath><g clip-path="url(#_clip14)"><path d="M392.403,260.057l-39.068,-32.782l35.353,-42.133l39.068,32.783l-35.353,42.132Z"/></g></g></svg>